<?xml version='1.0' encoding='iso-8859-1'?>
<!DOCTYPE svg PUBLIC '-//W3C//DTD SVG 1.1//EN' 'http://www.w3.org/Graphics/SVG/1.1/DTD/svg11.dtd'>
<svg version="1.1" xmlns="http://www.w3.org/2000/svg" viewBox="0 0 452.594 452.594" xmlns:xlink="http://www.w3.org/1999/xlink" enable-background="new 0 0 452.594 452.594">
<defs>
    <linearGradient id="grad3" x1="0%" y1="0%" x2="100%" y2="0%">
      <stop offset="0%" style="stop-color:rgb(94, 186, 189);stop-opacity:1" />
      <stop offset="100%" style="stop-color:rgb(3, 114, 183);stop-opacity:1" />
    </linearGradient>
</defs>
  <g>
    <path d="m430.511,44.654h-408.429c-12.176,0-22.082,9.906-22.082,22.082v250.224c0,12.176 9.906,22.082 22.082,22.082h154.323l-6.428,48.898h-27.505c-5.522,0-10,4.477-10,10s4.478,10 10,10h167.65c5.522,0 10-4.477 10-10s-4.478-10-10-10h-27.506l-6.428-48.898h154.322c12.177,0 22.083-9.906 22.083-22.082v-250.224c0.001-12.176-9.905-22.082-22.082-22.082zm-408.429,20h408.429c1.148,0 2.083,0.934 2.083,2.082v211.359h-412.594v-211.359c0-1.148 0.934-2.082 2.082-2.082zm240.362,323.286h-72.296l6.429-48.898h59.439l6.428,48.898zm168.067-68.898h-408.429c-1.148,0-2.082-0.934-2.082-2.082v-18.865h412.594v18.865c0,1.148-0.935,2.082-2.083,2.082z" fill="url(#grad3)"/>
    <path d="m86.297,259.042h40c5.522,0 10-4.477 10-10v-62c0-5.523-4.478-10-10-10h-40c-5.522,0-10,4.477-10,10v62c0,5.523 4.477,10 10,10zm10-62h20v42h-20v-42z" fill="url(#grad3)"/>
    <path d="m326.297,258.555h40c5.522,0 10-4.477 10-10v-29.55c0-5.523-4.478-10-10-10h-40c-5.522,0-10,4.477-10,10v29.55c0,5.523 4.477,10 10,10zm10-29.549h20v9.55h-20v-9.55z" fill="url(#grad3)"/>
    <path d="m246.297,259.042h40c5.522,0 10-4.477 10-10v-88.422c0-5.523-4.478-10-10-10h-40c-5.522,0-10,4.477-10,10v88.422c-2.84217e-14,5.523 4.477,10 10,10zm10-88.422h20v68.422h-20v-68.422z" fill="url(#grad3)"/>
    <path d="m166.297,259.042h40c5.522,0 10-4.477 10-10v-118.797c0-5.523-4.478-10-10-10h-40c-5.522,0-10,4.477-10,10v118.797c0,5.523 4.477,10 10,10zm10-118.797h20v98.797h-20v-98.797z" fill="url(#grad3)"/>
  </g>
</svg>
