<svg width="24px" height="24px" viewBox="0 0 24 24" fill="none" xmlns="http://www.w3.org/2000/svg">
<defs>
    <linearGradient id="grad3" x1="0%" y1="0%" x2="100%" y2="0%">
      <stop offset="0%" style="stop-color:rgb(94, 186, 189);stop-opacity:1" />
      <stop offset="100%" style="stop-color:rgb(3, 114, 183);stop-opacity:1" />
    </linearGradient>
</defs>
<path fill-rule="evenodd" clip-rule="evenodd" d="M1.62291 12.3415L3.89619 5.90532C3.9075 5.87332 3.92096 5.84211 3.93649 5.81193C4.31617 5.07411 4.99793 4.50861 5.72519 4.13231C6.45804 3.75312 7.30894 3.52783 8.11111 3.52783C9.25937 3.52783 10.4009 3.98867 11.2581 4.71962C11.533 4.95398 11.7847 5.22181 12 5.51784C12.2153 5.22181 12.467 4.95398 12.7419 4.71962C13.5991 3.98867 14.7406 3.52783 15.8889 3.52783C16.6911 3.52783 17.542 3.75312 18.2748 4.13231C19.0021 4.50861 19.6838 5.07411 20.0635 5.81193C20.079 5.84211 20.0925 5.87332 20.1038 5.90532L22.3771 12.3414C22.6176 12.9398 22.75 13.5934 22.75 14.2778C22.75 17.1466 20.4244 19.4723 17.5556 19.4723C14.9414 19.4723 12.7783 17.5413 12.4149 15.0278H11.5851C11.2217 17.5413 9.05856 19.4723 6.44444 19.4723C3.57645 19.4723 1.25132 17.1479 1.25 14.2803M4.18176 9.60076L5.29183 6.45792C5.49314 6.09479 5.8859 5.73805 6.41451 5.46454C6.95711 5.18379 7.57325 5.02783 8.11111 5.02783C8.87198 5.02783 9.67485 5.34083 10.2848 5.86098C10.8935 6.38002 11.25 7.04965 11.25 7.73462V12.3022C10.4726 10.4132 8.61382 9.08337 6.44444 9.08337C5.63337 9.08337 4.86572 9.26926 4.18176 9.60076ZM10.0638 13.5333C10.113 13.7738 10.1389 14.0228 10.1389 14.2778C10.1389 16.3182 8.48483 17.9723 6.44444 17.9723C4.40406 17.9723 2.75 16.3182 2.75 14.2778C2.75 12.7534 3.67326 11.4446 4.99112 10.8802C5.01851 10.8685 5.04607 10.8571 5.07379 10.846C5.49773 10.6765 5.9603 10.5834 6.44444 10.5834C7.71962 10.5834 8.84391 11.2294 9.50784 12.2121C9.77346 12.6052 9.96539 13.0522 10.0638 13.5333ZM12.75 12.3022C12.9444 11.83 13.2063 11.3927 13.5238 11.0024C14.4762 9.83143 15.9285 9.08339 17.5556 9.08339C17.5782 9.08339 17.6007 9.08353 17.6233 9.08382C18.1063 9.08999 18.5733 9.16207 19.0157 9.29143C19.2936 9.37266 19.5618 9.47647 19.8182 9.60076L18.7082 6.45792C18.5069 6.09478 18.1141 5.73805 17.5855 5.46454C17.0429 5.18379 16.4268 5.02783 15.8889 5.02783C15.128 5.02783 14.3251 5.34083 13.7152 5.86098C13.1065 6.38002 12.75 7.04965 12.75 7.73462V12.3022ZM13.8611 14.2778C13.8611 14.2778 13.8611 14.2778 13.8611 14.2778C13.8611 16.3182 15.5152 17.9723 17.5556 17.9723C19.5952 17.9723 21.2488 16.3194 21.25 14.28C21.25 14.2793 21.25 14.2786 21.25 14.2778C21.25 14.2471 21.2496 14.2165 21.2489 14.186C21.248 14.1492 21.2466 14.1124 21.2446 14.0759C21.1662 12.6201 20.2449 11.3883 18.9602 10.8598C18.527 10.6816 18.0527 10.5834 17.5556 10.5834C16.2803 10.5834 15.156 11.2295 14.4921 12.2122C14.0937 12.8019 13.8611 13.5127 13.8611 14.2778Z" fill="url(#grad3)"/>
<path d="M1.62291 12.3415C1.38237 12.9399 1.25 13.5934 1.25 14.2778C1.25 14.2778 1.25 14.2778 1.25 14.2778" fill="url(#grad3)"/>
</svg>
